<svg viewBox="0 0 841.8857905499999 355.80458233890215" xmlns="http://www.w3.org/2000/svg" data-name="Layer 1" id="Layer_1" style="max-height: 500px" width="841.8857905499999" height="355.80458233890215">
  <g>
    <path fill="#2282a1" d="M341.5,114.59c-3.24-8.63-7.14-17-11.71-25.04l-22.32,15.85-14.91,10.6-22.44,15.94c4.09,8.61,6.97,17.79,8.55,27.27.94,5.64,1.42,11.41,1.42,17.25,0,9.13-1.17,18.08-3.44,26.69-2.39,9.03-5.99,17.68-10.72,25.74-4.44,7.56-9.88,14.6-16.24,20.96-.17.17-.33.33-.5.5-6.91,6.81-14.6,12.55-22.87,17.11-3,1.66-6.08,3.16-9.22,4.5-8.63,3.69-17.75,6.19-27.19,7.41v72.88c9.22-.7,18.32-2.11,27.19-4.2,26.37-6.22,50.9-18.46,71.96-36.03,4.11-3.44,8.1-7.06,11.93-10.89,2.74-2.74,5.36-5.53,7.88-8.41,6.05-6.88,11.5-14.13,16.35-21.74,4.94-7.75,9.25-15.83,12.88-24.21,9.53-21.9,14.54-45.73,14.54-70.32,0-21.47-3.81-42.36-11.11-61.88h-.02Z"/>
    <path fill="#2282a1" d="M126.28,267.46c-8.27-4.56-15.97-10.3-22.87-17.11-.17-.16-.34-.33-.5-.5-6.36-6.36-11.8-13.41-16.24-20.96-4.74-8.06-8.33-16.71-10.72-25.74-2.27-8.6-3.44-17.55-3.44-26.69,0-5.83.48-11.6,1.42-17.25,1.58-9.5,4.47-18.66,8.55-27.27l-22.44-15.94-14.91-10.6-22.32-15.85c-4.56,8.03-8.49,16.41-11.71,25.04C3.81,134.1,0,154.98,0,176.45,0,201.05,5,224.87,14.54,246.77c3.64,8.38,7.94,16.46,12.88,24.21,4.85,7.6,10.3,14.86,16.35,21.74,2.52,2.88,5.14,5.67,7.88,8.41,3.83,3.83,7.8,7.47,11.91,10.89,21.05,17.57,45.59,29.82,71.96,36.03,8.88,2.09,17.96,3.5,27.19,4.2v-72.88c-9.42-1.22-18.57-3.72-27.19-7.41-3.14-1.34-6.22-2.84-9.22-4.5h0Z"/>
    <path fill="#588057" d="M209.42,255.46c2.63-1.09,5.17-2.33,7.66-3.69V80.96c6.08,2.59,11.93,5.8,17.44,9.55,5.38,3.66,10.47,7.86,15.18,12.57,1.95,1.95,3.81,3.97,5.6,6.05l22.24-15.8,14.82-10.52,22.21-15.77c-4.2-5.28-8.74-10.38-13.58-15.22-1.66-1.66-3.36-3.3-5.06-4.88-22.51-20.82-49.53-35.15-78.8-42.04-8.88-2.09-17.96-3.5-27.19-4.2-4.5-.34-9.03-.52-13.6-.52s-9.1.17-13.6.52c-9.22.7-18.32,2.11-27.19,4.2-29.27,6.89-56.3,21.22-78.8,42.04-1.72,1.58-3.41,3.22-5.08,4.88-4.85,4.85-9.38,9.94-13.58,15.22l22.21,15.77,14.82,10.52,22.24,15.8c1.78-2.08,3.64-4.09,5.6-6.05,4.7-4.7,9.78-8.91,15.18-12.57,5.52-3.75,11.35-6.96,17.44-9.55v170.81c2.49,1.34,5.03,2.58,7.66,3.69,6.17,2.59,12.72,4.5,19.54,5.6,4.42.72,8.97,1.08,13.6,1.08s9.17-.36,13.6-1.08c6.81-1.09,13.35-2.99,19.54-5.6h-.05Z"/>
  </g>
  <g>
    <g>
      <path fill="#2282a1" d="M461.11,39.18v63.69h-13.02v-63.69h-26.71v-13.02h66.44v13.02h-26.71Z"/>
      <path fill="#2282a1" d="M539.99,44.84l-12.96,29.18-5.78,13.02-16.55,37.29h-14.25l16.55-37.29h-13.18l-5.77-13.02-12.96-29.18h14.24l12.96,29.18h10.49l12.96-29.18h14.25Z"/>
      <path fill="#2282a1" d="M596.41,91.49c-5.45,7.47-14.27,12.33-24.21,12.33-16.54,0-29.96-13.46-29.96-29.98s13.44-29.96,29.96-29.96c9.92,0,18.76,4.85,24.19,12.3l-11.38,6.58c-3.11-3.59-7.69-5.86-12.82-5.86-9.33,0-16.94,7.6-16.94,16.94s7.6,16.96,16.94,16.96c5.11,0,9.72-2.28,12.83-5.88l11.38,6.58v-.02Z"/>
      <path fill="#2282a1" d="M660.4,71.86v31.01h-13.02v-31.01c0-7.91-6.42-14.33-14.33-14.33s-14.33,6.42-14.33,14.33v30.99h-13.02V34.46l13.02-8.33v22.47c4.17-2.58,9.08-4.09,14.33-4.09,15.08,0,27.35,12.27,27.37,27.35h-.02Z"/>
      <path fill="#2282a1" d="M683.78,80.36c2.56,6.13,8.61,10.44,15.64,10.44,4.33,0,8.28-1.63,11.28-4.33l11.61,6.69c-5.5,6.52-13.72,10.66-22.9,10.66-16.54,0-29.96-13.46-29.96-29.98s13.44-29.96,29.96-29.96c9.17,0,17.4,4.14,22.9,10.64,3.08,3.64,5.3,8.02,6.36,12.82.47,2.11.72,4.27.72,6.5s-.25,4.42-.72,6.52h-44.9ZM683.78,67.34h31.29c-.97-2.36-2.49-4.45-4.36-6.11-3-2.69-6.96-4.33-11.28-4.33-7.03,0-13.08,4.31-15.64,10.44h0Z"/>
      <path fill="#2282a1" d="M777.38,45.14v13.02c-21.68,0-24.71,13.55-25.08,16.1v28.62h-13.02v-58.02l12.24,7.83c5.88-4.38,14.25-7.53,25.87-7.53v-.02Z"/>
      <path fill="#2282a1" d="M824.19,50.39c4.17,3.84,6.56,9.24,6.56,14.82v37.65h-13.02v-6.17c-5.58,4.81-12.05,7.28-18.11,7.28-1.42,0-2.83-.14-4.2-.41-9.1-1.84-14.27-9.39-12.85-18.79,2.52-16.68,21.55-20.21,35.15-19.6,0-1.91-.89-3.84-2.36-5.19-1.94-1.78-4.83-2.56-8.39-2.27-5.06.42-9.77,3.13-12.82,5.31l-7.6-10.58c4.39-3.16,11.32-7.06,19.35-7.72,9.21-.75,15.02,2.67,18.29,5.67v-.02ZM815.61,78.24h-.31c-7.1,0-18.74,1.14-19.85,8.47-.38,2.49.34,3.64,2.55,4.08,4.86.98,12.91-2.55,17.63-12.55h-.02Z"/>
      <path fill="#2282a1" d="M448.92,198.04v-76.71h13.02v76.71h-13.02Z"/>
      <path fill="#2282a1" d="M529.94,167.03v30.99h-13.02v-30.99c0-7.91-6.42-14.33-14.33-14.33s-14.33,6.42-14.33,14.33v30.99h-13.02v-.14h0v-57.89l9.67,6.19c4.78-4.06,10.94-6.52,17.69-6.52,15.08,0,27.35,12.27,27.35,27.35l-.02.02Z"/>
      <path fill="#2282a1" d="M595.54,140.01l-24.16,58.06h-14.24l-24.16-58.06h14.1l17.16,41.25,17.16-41.25h14.14Z"/>
      <path fill="#2282a1" d="M612.16,175.53c2.56,6.13,8.61,10.44,15.64,10.44,4.33,0,8.28-1.63,11.28-4.33l11.61,6.69c-5.5,6.52-13.72,10.66-22.9,10.66-16.54,0-29.96-13.46-29.96-29.98s13.44-29.96,29.96-29.96c9.17,0,17.4,4.14,22.9,10.64,3.08,3.64,5.3,8.02,6.36,12.82.47,2.11.72,4.27.72,6.5s-.25,4.42-.72,6.52h-44.9ZM612.16,162.51h31.29c-.97-2.36-2.49-4.45-4.36-6.11-3-2.69-6.96-4.33-11.28-4.33-7.03,0-13.08,4.31-15.64,10.44h0Z"/>
      <path fill="#2282a1" d="M715.93,183.17c-1.47,7.25-8.72,15.43-24.32,15.43-.64,0-1.31,0-1.98-.05-12.58-.53-23.54-8.83-23.99-9.19l7.91-10.35c.08.06,8.22,6.16,16.63,6.52,9.72.41,12.99-2.77,12.97-4.95,0-1.77-1.63-2.86-2.59-3.41-2.09-1.16-5.5-1.72-10.07-1.72h0c-9.6-.11-17.3-3.11-21.74-8.53-2.95-3.61-4.11-7.94-3.25-12.19,1.53-7.55,9.33-16.11,26.3-15.39,12.58.53,23.54,8.83,23.99,9.19l-7.91,10.35c-.08-.06-8.22-6.1-16.63-6.52-11.89-.61-13.16,2.99-12.99,4.95.05.5.36,1.13.56,1.36,1.48,1.81,5.44,3.75,12.1,3.75h0c9.6.11,17.3,3.11,21.74,8.53,2.95,3.61,4.11,7.94,3.25,12.19l.02.03Z"/>
      <path fill="#2282a1" d="M754.66,184.92v13.02h-2.99c-12.53,0-22.74-10.21-22.74-22.74v-22.16h-5.41v-13.02h5.41v-11.74l13.02,8.44v3.3h11.72v13.02h-11.72v22.16c0,5.36,4.36,9.72,9.72,9.72h2.99Z"/>
    </g>
    <g>
      <path fill="#2282a1" d="M459.01,226.53h3.88l-5.62,31.93h-3.88l5.62-31.93Z"/>
      <path fill="#2282a1" d="M469.95,235.88h3.76l-.59,3.39c1.65-2.09,4.63-3.86,8.23-3.86,5.95,0,8.91,3.5,7.88,9.31l-2.42,13.73h-3.74l2.26-12.82c.78-4.4-1.11-6.7-5.2-6.7-3.86,0-7.45,2.66-8.16,6.77l-2.26,12.74h-3.74l3.97-22.57Z"/>
      <path fill="#2282a1" d="M495.06,235.88h4l3.71,19,10.37-19h4.02l-12.72,22.57h-4.61l-4.77-22.57Z"/>
      <path fill="#2282a1" d="M518.16,247.17c1.15-6.63,7.27-11.76,13.68-11.76,5.64,0,10.18,3.97,9.01,10.61-.12.68-.26,1.43-.47,2.07h-18.6c-.49,4.11,2,7.43,6.7,7.43,3.17,0,5.76-1.48,7.78-3.79l2.49,2.07c-2.63,3.2-6.65,5.13-10.89,5.13-6.8,0-10.89-5.13-9.71-11.76ZM522.46,245.01h14.84c.4-3.71-2.21-6.18-6.04-6.18s-7.57,2.47-8.79,6.18Z"/>
      <path fill="#2282a1" d="M547.34,251.76c.85,2.26,2.82,3.81,6.09,3.81,2.94,0,5.24-1.25,5.57-3.17.38-2.09-1.06-2.75-4.73-3.6-4.61-1.08-7.78-2.56-7.03-6.89.71-3.95,4.89-6.49,9.55-6.49,4.07,0,6.72,1.98,7.67,4.19l-2.92,2.12c-.82-1.58-2.42-2.94-5.34-2.94s-4.92,1.2-5.24,3.06c-.4,2.16,1.32,2.75,4.99,3.67,4.66,1.18,7.57,2.73,6.82,6.89-.68,4-5.2,6.54-9.95,6.54s-7.64-1.98-8.7-5.08l3.22-2.09Z"/>
      <path fill="#2282a1" d="M568.75,239.11l.56-3.22h4.19l1.29-7.24h3.69l-1.29,7.24h7.45l-.56,3.22h-7.43l-2.14,12.2c-.54,2.96.85,4.26,3.15,4.26,1.22,0,2.82-.33,4-.87l-.07,3.22c-1.06.54-3.1,1.01-4.94,1.01-4.35,0-6.82-2.4-6-7.01l2.26-12.81h-4.16Z"/>
      <path fill="#2282a1" d="M586.74,258.46l3.97-22.57h3.74l-.59,3.36c1.62-2.09,4.56-3.83,8.09-3.83,4,0,6.56,1.79,7.41,4.75,2.04-2.94,5.43-4.75,9.1-4.75,5.88,0,8.72,3.72,7.76,9.24l-2.45,13.8h-3.74l2.28-12.89c.73-4.16-1.15-6.63-5.08-6.63-3.67,0-7.15,2.56-7.85,6.56l-2.28,12.96h-3.74l2.28-12.89c.73-4.16-1.15-6.63-4.94-6.63s-7.24,2.61-7.97,6.7l-2.26,12.82h-3.74Z"/>
      <path fill="#2282a1" d="M631.82,247.17c1.15-6.63,7.27-11.76,13.68-11.76,5.64,0,10.18,3.97,9.01,10.61-.12.68-.26,1.43-.47,2.07h-18.6c-.49,4.11,2,7.43,6.7,7.43,3.17,0,5.76-1.48,7.78-3.79l2.49,2.07c-2.63,3.2-6.65,5.13-10.89,5.13-6.8,0-10.89-5.13-9.71-11.76ZM636.12,245.01h14.84c.4-3.71-2.21-6.18-6.04-6.18s-7.57,2.47-8.79,6.18Z"/>
      <path fill="#2282a1" d="M662.67,235.88h3.76l-.59,3.39c1.65-2.09,4.63-3.86,8.23-3.86,5.95,0,8.91,3.5,7.88,9.31l-2.42,13.73h-3.74l2.26-12.82c.78-4.4-1.11-6.7-5.2-6.7-3.86,0-7.45,2.66-8.16,6.77l-2.26,12.74h-3.74l3.97-22.57Z"/>
      <path fill="#2282a1" d="M687.7,239.11l.56-3.22h4.19l1.29-7.24h3.69l-1.29,7.24h7.45l-.56,3.22h-7.43l-2.14,12.2c-.54,2.96.85,4.26,3.15,4.26,1.22,0,2.82-.33,4-.87l-.07,3.22c-1.06.54-3.1,1.01-4.94,1.01-4.35,0-6.82-2.4-6-7.01l2.26-12.81h-4.16Z"/>
      <path fill="#2282a1" d="M717.01,250.09c.85-4.77,5.74-7.38,8.54-8.61-2.26-2.73-3.06-4.77-2.56-7.5.89-5.08,5.67-7.92,10.53-7.92,5.17,0,8.37,3.15,7.6,7.62-.71,4-4.54,6.68-9.66,8.75l6.96,8.02c2.09-1.95,2.66-6.16,2.7-8.96h3.57c-.24,4.19-1.01,8.04-4.09,11.17l5.13,5.81h-5.2l-2.82-3.13c-2.21,1.6-5.5,3.6-10.53,3.6-6.89,0-11.07-3.65-10.16-8.84ZM727.82,255.47c3.48,0,6.14-1.18,7.74-2.4l-7.97-9.26c-1.98.85-6,2.61-6.63,6.18-.56,3.2,2.28,5.48,6.87,5.48ZM729.42,240.07c4.96-1.95,7.52-3.95,7.95-6.35.49-2.7-1.39-4.4-4.4-4.4-2.73,0-5.71,1.43-6.28,4.54-.47,2.68.87,4.14,2.73,6.21Z"/>
      <path fill="#2282a1" d="M449.48,316.23l18.81-31.93h4.56l7.59,31.93h-4.12l-1.65-7.41h-16.81l-4.3,7.41h-4.09ZM474.03,305.51l-4.16-17.17-10.21,17.17h14.37Z"/>
      <path fill="#2282a1" d="M485.56,304.9c1.2-6.77,6.98-11.71,13.45-11.71,4.04,0,6.7,1.76,7.95,4.19l2.52-14.25h3.74l-5.83,33.11h-3.74l.66-3.67c-2.12,2.4-5.41,4.14-9.45,4.14-6.47,0-10.49-5.03-9.29-11.8ZM495.83,313.31c4.82,0,9.03-3.76,9.85-8.42.82-4.68-2.09-8.32-6.91-8.32s-8.68,3.64-9.5,8.32c-.82,4.66,1.86,8.42,6.56,8.42Z"/>
      <path fill="#2282a1" d="M516.64,293.66h4l3.71,19,10.37-19h4.02l-12.72,22.57h-4.61l-4.77-22.57Z"/>
      <path fill="#2282a1" d="M539.93,316.23l3.97-22.57h3.74l-3.97,22.57h-3.74ZM544.8,286.09c.23-1.36,1.34-2.3,2.7-2.3s2.19.94,1.95,2.3c-.24,1.36-1.39,2.33-2.75,2.33s-2.14-.96-1.9-2.33Z"/>
      <path fill="#2282a1" d="M553.97,309.53c.85,2.26,2.82,3.81,6.09,3.81,2.94,0,5.24-1.25,5.57-3.17.38-2.09-1.06-2.75-4.73-3.6-4.61-1.08-7.78-2.56-7.03-6.89.71-3.95,4.89-6.49,9.55-6.49,4.07,0,6.72,1.98,7.67,4.19l-2.92,2.12c-.82-1.58-2.42-2.94-5.34-2.94s-4.92,1.2-5.24,3.06c-.4,2.16,1.32,2.75,4.99,3.67,4.66,1.18,7.57,2.73,6.82,6.89-.68,4-5.2,6.54-9.95,6.54s-7.64-1.98-8.7-5.08l3.22-2.09Z"/>
      <path fill="#2282a1" d="M575.19,304.94c1.15-6.61,7.2-11.76,14.06-11.76s11.08,5.15,9.92,11.76c-1.18,6.61-7.22,11.76-14.08,11.76s-11.07-5.15-9.9-11.76ZM585.72,313.22c4.75,0,8.89-3.62,9.71-8.28.82-4.66-2.05-8.28-6.8-8.28s-8.89,3.62-9.71,8.28c-.82,4.66,2.05,8.28,6.8,8.28Z"/>
      <path fill="#2282a1" d="M603.5,316.23l3.97-22.57h3.76l-.59,3.34c1.74-2.61,4.19-3.81,6.77-3.81,1.6,0,2.7.4,3.08.59l-.99,3.46c-.59-.24-1.39-.56-2.85-.56-3.01,0-6.3,1.98-7.2,7.03l-2.21,12.53h-3.76Z"/>
      <path fill="#2282a1" d="M617.52,325.33l1.01-3.17c.71.35,1.9.61,3.08.61,2.56,0,4.47-1.6,6.25-4.84l.59-1.06-5.67-23.21h4.07l4.37,18.91,10.86-18.91h4.12l-15.14,25.44c-2.66,4.51-5.27,7.01-9.83,7.01-1.81,0-3.15-.45-3.72-.78Z"/>
      <path fill="#2282a1" d="M660.99,307.72c1.13,2.96,3.69,5.46,8.39,5.46,4.3,0,7.71-2.05,8.23-5.01.56-3.15-1.86-4.49-6.84-6.28-5.57-2-9.73-4.14-8.79-9.55,1.01-5.69,6.91-8.51,11.95-8.51,6.16,0,9.01,3.46,10.09,6.09l-3.41,2.21c-.87-1.9-2.89-4.75-7.31-4.75-3.34,0-6.68,1.65-7.24,4.91-.56,3.1,2.05,4.21,6.61,5.86,5.62,2.05,10.04,4.19,9.03,9.97-.89,5.01-6.35,8.58-12.93,8.58-6.11,0-9.92-3.1-11.05-6.89l3.29-2.09Z"/>
      <path fill="#2282a1" d="M687.26,304.94c1.15-6.63,7.27-11.76,13.68-11.76,5.64,0,10.18,3.97,9.01,10.61-.12.68-.26,1.43-.47,2.07h-18.6c-.49,4.11,2,7.43,6.7,7.43,3.17,0,5.76-1.48,7.78-3.79l2.49,2.07c-2.63,3.2-6.65,5.13-10.89,5.13-6.8,0-10.89-5.13-9.71-11.76ZM691.56,302.78h14.84c.4-3.71-2.21-6.18-6.04-6.18s-7.57,2.47-8.79,6.18Z"/>
      <path fill="#2282a1" d="M714.14,316.23l3.97-22.57h3.76l-.59,3.34c1.74-2.61,4.19-3.81,6.77-3.81,1.6,0,2.7.4,3.08.59l-.99,3.46c-.59-.24-1.39-.56-2.85-.56-3.01,0-6.3,1.98-7.2,7.03l-2.21,12.53h-3.76Z"/>
      <path fill="#2282a1" d="M733.59,293.66h4l3.71,19,10.37-19h4.02l-12.72,22.57h-4.61l-4.77-22.57Z"/>
      <path fill="#2282a1" d="M756.88,316.23l3.97-22.57h3.74l-3.97,22.57h-3.74ZM761.74,286.09c.23-1.36,1.34-2.3,2.7-2.3s2.19.94,1.95,2.3c-.24,1.36-1.39,2.33-2.75,2.33s-2.14-.96-1.9-2.33Z"/>
      <path fill="#2282a1" d="M769.09,304.94c1.15-6.63,7.34-11.76,14.04-11.76,4.54,0,7.97,2.23,9.29,6.02l-3.32,1.83c-1.11-2.73-3.36-4.37-6.58-4.37-4.59,0-8.89,3.64-9.69,8.28-.82,4.63,2.05,8.28,6.8,8.28,3.13,0,6.09-1.69,7.97-4.26l2.68,1.83c-2.47,3.6-6.89,5.9-11.29,5.9-6.87,0-11.08-5.17-9.9-11.76Z"/>
      <path fill="#2282a1" d="M795.59,304.94c1.15-6.63,7.27-11.76,13.68-11.76,5.64,0,10.18,3.97,9.01,10.61-.12.68-.26,1.43-.47,2.07h-18.6c-.49,4.11,2,7.43,6.7,7.43,3.17,0,5.76-1.48,7.78-3.79l2.49,2.07c-2.63,3.2-6.65,5.13-10.89,5.13-6.8,0-10.89-5.13-9.71-11.76ZM799.9,302.78h14.84c.4-3.71-2.21-6.18-6.04-6.18s-7.57,2.47-8.79,6.18Z"/>
      <path fill="#2282a1" d="M824.78,309.53c.85,2.26,2.82,3.81,6.09,3.81,2.94,0,5.24-1.25,5.57-3.17.38-2.09-1.06-2.75-4.73-3.6-4.61-1.08-7.78-2.56-7.03-6.89.71-3.95,4.89-6.49,9.55-6.49,4.07,0,6.72,1.98,7.67,4.19l-2.92,2.12c-.82-1.58-2.42-2.94-5.34-2.94s-4.92,1.2-5.24,3.06c-.4,2.16,1.32,2.75,4.99,3.67,4.66,1.18,7.57,2.73,6.82,6.89-.68,4-5.2,6.54-9.95,6.54s-7.64-1.98-8.7-5.08l3.22-2.09Z"/>
    </g>
  </g>
</svg>