<?xml version="1.0" encoding="UTF-8"?>
<svg id="Layer_1" xmlns="http://www.w3.org/2000/svg" version="1.1" viewBox="0 0 841.89 352.44">
  <!-- Generator: Adobe Illustrator 30.2.1, SVG Export Plug-In . SVG Version: 2.1.1 Build 1)  -->
  <defs>
    <style>
      .st0 {
        fill: #588157;
      }

      .st1 {
        fill: #2283a2;
      }
    </style>
  </defs>
  <g>
    <path class="st1" d="M337.29,114.53c-3.2-8.64-7.05-17.02-11.56-25.06l-22.04,15.86-14.73,10.61-22.17,15.96c4.04,8.62,6.88,17.8,8.44,27.3.93,5.65,1.4,11.42,1.4,17.27,0,9.14-1.16,18.1-3.4,26.72-2.36,9.04-5.91,17.69-10.59,25.77-4.38,7.57-9.76,14.61-16.04,20.98l-.49.5c-6.82,6.82-14.42,12.56-22.58,17.13-2.96,1.66-6,3.16-9.11,4.51-8.52,3.69-17.54,6.2-26.86,7.42v72.95c9.11-.7,18.09-2.11,26.86-4.21,26.04-6.23,50.28-18.48,71.07-36.06,4.06-3.44,8-7.07,11.78-10.9,2.7-2.74,5.29-5.54,7.78-8.42,5.97-6.88,11.36-14.14,16.15-21.76,4.88-7.76,9.14-15.85,12.72-24.23,9.42-21.92,14.36-45.78,14.36-70.38,0-21.5-3.77-42.4-10.98-61.94h-.02v-.02Z"/>
    <path class="st1" d="M124.73,267.55c-8.17-4.57-15.78-10.31-22.58-17.13-.17-.16-.34-.33-.49-.5-6.28-6.37-11.65-13.42-16.04-20.98-4.68-8.07-8.23-16.72-10.59-25.77-2.24-8.6-3.4-17.57-3.4-26.72,0-5.84.48-11.61,1.4-17.27,1.56-9.51,4.41-18.68,8.44-27.3l-22.17-15.96-14.73-10.61-22.04-15.86c-4.51,8.04-8.38,16.43-11.56,25.06C3.77,134.06,0,154.96,0,176.46c0,24.62,4.94,48.47,14.36,70.38,3.6,8.39,7.84,16.47,12.72,24.23,4.79,7.6,10.17,14.88,16.15,21.76,2.49,2.88,5.08,5.68,7.78,8.42,3.78,3.83,7.7,7.48,11.76,10.9,20.79,17.58,45.03,29.85,71.07,36.06,8.77,2.1,17.74,3.5,26.86,4.21v-72.95c-9.31-1.22-18.34-3.72-26.86-7.42-3.1-1.35-6.14-2.85-9.11-4.51h0Z"/>
    <path class="st0" d="M206.84,255.54c2.59-1.1,5.11-2.33,7.56-3.69V80.87c6,2.6,11.78,5.8,17.23,9.56,5.31,3.66,10.34,7.87,14.99,12.58,1.93,1.96,3.77,3.97,5.53,6.05l21.97-15.82,14.63-10.53,21.94-15.79c-4.15-5.29-8.63-10.39-13.41-15.24-1.64-1.66-3.32-3.3-5-4.88-22.23-20.84-48.92-35.18-77.83-42.08-8.77-2.1-17.74-3.5-26.86-4.21-4.45-.34-8.92-.52-13.43-.52s-8.98.17-13.43.52c-9.11.7-18.09,2.11-26.86,4.21-28.91,6.9-55.6,21.25-77.83,42.08-1.7,1.58-3.37,3.22-5.02,4.88-4.79,4.85-9.26,9.95-13.41,15.24l21.94,15.79,14.63,10.53,21.97,15.82c1.76-2.08,3.6-4.1,5.53-6.05,4.65-4.71,9.66-8.92,14.99-12.58,5.45-3.75,11.21-6.96,17.23-9.56v170.98c2.45,1.35,4.97,2.58,7.56,3.69,6.1,2.6,12.57,4.51,19.3,5.6,4.37.72,8.86,1.08,13.43,1.08s9.06-.36,13.43-1.08c6.73-1.1,13.18-2.99,19.3-5.6h-.08Z"/>
  </g>
  <g>
    <path class="st1" d="M476.8,103.83v63.75h-12.86v-63.75h-26.38v-13.03h65.62v13.03h-26.38Z"/>
    <path class="st1" d="M554.7,109.5l-12.8,29.21-5.71,13.03-16.35,37.33h-14.08l16.35-37.33h-13.01l-5.7-13.03-12.8-29.21h14.06l12.8,29.21h10.36l12.8-29.21s14.08,0,14.08,0Z"/>
    <path class="st1" d="M610.43,156.2c-5.39,7.48-14.09,12.34-23.91,12.34-16.33,0-29.59-13.47-29.59-30.01s13.28-29.99,29.59-29.99c9.8,0,18.52,4.85,23.9,12.31l-11.24,6.59c-3.07-3.6-7.59-5.87-12.66-5.87-9.22,0-16.73,7.6-16.73,16.96s7.5,16.97,16.73,16.97c5.05,0,9.6-2.28,12.67-5.88l11.24,6.59v-.02h0Z"/>
    <path class="st1" d="M673.63,136.55v31.04h-12.86v-31.04c0-7.92-6.34-14.35-14.16-14.35s-14.16,6.43-14.16,14.35v31.02h-12.86v-68.46l12.86-8.34v22.5c4.12-2.58,8.97-4.1,14.16-4.1,14.9,0,27.01,12.28,27.03,27.38h-.02,0Z"/>
    <path class="st1" d="M696.72,145.06c2.53,6.13,8.51,10.45,15.45,10.45,4.28,0,8.18-1.63,11.15-4.33l11.47,6.7c-5.43,6.52-13.55,10.67-22.61,10.67-16.33,0-29.59-13.47-29.59-30.01s13.28-29.99,29.59-29.99c9.06,0,17.18,4.15,22.61,10.65,3.04,3.65,5.23,8.03,6.28,12.83.46,2.11.71,4.27.71,6.51s-.25,4.43-.71,6.52h-44.35ZM696.72,132.02h30.9c-.96-2.36-2.45-4.46-4.31-6.12-2.96-2.69-6.87-4.33-11.15-4.33-6.95,0-12.92,4.32-15.45,10.45h.01Z"/>
    <path class="st1" d="M789.17,109.79v13.03c-21.41,0-24.41,13.56-24.78,16.11v28.65h-12.86v-58.07l12.09,7.84c5.8-4.38,14.08-7.54,25.55-7.54,0,0,0-.02,0-.02Z"/>
    <path class="st1" d="M835.41,115.05c4.12,3.85,6.48,9.25,6.48,14.83v37.69h-12.86v-6.18c-5.51,4.82-11.9,7.29-17.89,7.29-1.4,0-2.79-.14-4.15-.41-8.98-1.85-14.09-9.4-12.69-18.8,2.49-16.69,21.29-20.23,34.72-19.62,0-1.91-.88-3.85-2.33-5.19-1.91-1.78-4.77-2.57-8.29-2.27-5,.42-9.65,3.13-12.66,5.32l-7.5-10.59c4.34-3.16,11.18-7.07,19.11-7.73,9.09-.75,14.83,2.68,18.06,5.68v-.02h0ZM826.93,142.93h-.31c-7.01,0-18.51,1.14-19.6,8.48-.37,2.49.34,3.65,2.52,4.08,4.8.99,12.75-2.55,17.41-12.56h-.02Z"/>
    <path class="st1" d="M464.75,262.84v-76.78h12.86v76.78h-12.86Z"/>
    <path class="st1" d="M544.78,231.81v31.02h-12.86v-31.02c0-7.92-6.34-14.35-14.16-14.35s-14.16,6.43-14.16,14.35v31.02h-12.86v-.14h0v-57.95l9.56,6.2c4.72-4.07,10.81-6.52,17.47-6.52,14.9,0,27.01,12.28,27.01,27.38l-.02.02h.02Z"/>
    <path class="st1" d="M609.57,204.76l-23.87,58.12h-14.06l-23.87-58.12h13.92l16.95,41.29,16.95-41.29h13.98Z"/>
    <path class="st1" d="M625.99,240.32c2.53,6.13,8.51,10.45,15.45,10.45,4.28,0,8.18-1.63,11.15-4.33l11.47,6.7c-5.43,6.52-13.55,10.67-22.61,10.67-16.33,0-29.59-13.47-29.59-30.01s13.28-29.99,29.59-29.99c9.06,0,17.18,4.15,22.61,10.65,3.04,3.65,5.23,8.03,6.28,12.83.46,2.11.71,4.27.71,6.51s-.25,4.43-.71,6.52h-44.35ZM625.99,227.28h30.9c-.96-2.36-2.45-4.46-4.31-6.12-2.96-2.69-6.87-4.33-11.15-4.33-6.95,0-12.92,4.32-15.45,10.45h.01Z"/>
    <path class="st1" d="M728.48,247.97c-1.45,7.26-8.61,15.44-24.02,15.44-.63,0-1.3,0-1.96-.05-12.43-.53-23.25-8.84-23.7-9.2l7.81-10.36c.08.06,8.12,6.16,16.42,6.52,9.6.41,12.83-2.77,12.81-4.96,0-1.77-1.61-2.86-2.56-3.41-2.07-1.16-5.43-1.72-9.94-1.72h0c-9.48-.11-17.09-3.11-21.47-8.54-2.92-3.61-4.06-7.95-3.21-12.2,1.51-7.56,9.22-16.13,25.98-15.41,12.43.53,23.25,8.84,23.7,9.2l-7.81,10.36c-.08-.06-8.12-6.1-16.42-6.52-11.75-.61-13,2.99-12.83,4.96.05.5.36,1.13.56,1.36,1.47,1.81,5.37,3.75,11.95,3.75h0c9.48.11,17.09,3.11,21.47,8.54,2.92,3.61,4.06,7.95,3.21,12.2l.02.03h0Z"/>
    <path class="st1" d="M766.73,249.72v13.03h-2.95c-12.38,0-22.46-10.22-22.46-22.76v-22.18h-5.34v-13.03h5.34v-11.75l12.86,8.45v3.3h11.58v13.03h-11.58v22.18c0,5.37,4.31,9.73,9.6,9.73h2.95Z"/>
  </g>
</svg>