<?xml version="1.0" encoding="UTF-8"?>
<svg id="Layer_1" data-name="Layer 1" xmlns="http://www.w3.org/2000/svg" viewBox="0 0 841.89 595.28">
  <rect width="841.89" height="595.28" fill="#020302"/>
  <g>
    <g>
      <path d="M366.76,258.22c-2.07-5.52-4.57-10.88-7.49-16.02l-14.28,10.14-9.54,6.78-14.36,10.2c2.62,5.51,4.46,11.38,5.47,17.45.6,3.61.91,7.3.91,11.04,0,5.84-.75,11.57-2.2,17.08-1.53,5.78-3.83,11.31-6.86,16.47-2.84,4.84-6.32,9.34-10.39,13.41-.11.11-.21.21-.32.32-4.42,4.36-9.34,8.03-14.63,10.95-1.92,1.06-3.89,2.02-5.9,2.88-5.52,2.36-11.36,3.96-17.4,4.74v46.63c5.9-.45,11.72-1.35,17.4-2.69,16.87-3.98,32.57-11.81,46.04-23.05,2.63-2.2,5.18-4.52,7.63-6.97,1.75-1.75,3.43-3.54,5.04-5.38,3.87-4.4,7.36-9.04,10.46-13.91,3.16-4.96,5.92-10.13,8.24-15.49,6.1-14.01,9.3-29.26,9.3-44.99,0-13.74-2.44-27.1-7.11-39.59Z" fill="#fff"/>
      <path d="M229.06,356.03c-5.29-2.92-10.22-6.59-14.63-10.95-.11-.1-.22-.21-.32-.32-4.07-4.07-7.55-8.58-10.39-13.41-3.03-5.16-5.33-10.69-6.86-16.47-1.45-5.5-2.2-11.23-2.2-17.08,0-3.73.31-7.42.91-11.04,1.01-6.08,2.86-11.94,5.47-17.45l-14.36-10.2-9.54-6.78-14.28-10.14c-2.92,5.14-5.43,10.5-7.49,16.02-4.67,12.49-7.11,25.85-7.11,39.59,0,15.74,3.2,30.98,9.3,44.99,2.33,5.36,5.08,10.53,8.24,15.49,3.1,4.86,6.59,9.51,10.46,13.91,1.61,1.84,3.29,3.63,5.04,5.38,2.45,2.45,4.99,4.78,7.62,6.97,13.47,11.24,29.17,19.08,46.04,23.05,5.68,1.34,11.49,2.24,17.4,2.69v-46.63c-6.03-.78-11.88-2.38-17.4-4.74-2.01-.86-3.98-1.82-5.9-2.88Z" fill="#fff"/>
      <path d="M282.25,348.35c1.68-.7,3.31-1.49,4.9-2.36v-109.29c3.89,1.66,7.63,3.71,11.16,6.11,3.44,2.34,6.7,5.03,9.71,8.04,1.25,1.25,2.44,2.54,3.58,3.87l14.23-10.11,9.48-6.73,14.21-10.09c-2.69-3.38-5.59-6.64-8.69-9.74-1.06-1.06-2.15-2.11-3.24-3.12-14.4-13.32-31.69-22.49-50.42-26.9-5.68-1.34-11.49-2.24-17.4-2.69-2.88-.22-5.78-.33-8.7-.33s-5.82.11-8.7.33c-5.9.45-11.72,1.35-17.4,2.69-18.73,4.41-36.02,13.58-50.42,26.9-1.1,1.01-2.18,2.06-3.25,3.12-3.1,3.1-6,6.36-8.69,9.74l14.21,10.09,9.48,6.73,14.23,10.11c1.14-1.33,2.33-2.62,3.58-3.87,3.01-3.01,6.26-5.7,9.71-8.04,3.53-2.4,7.26-4.45,11.16-6.11v109.29c1.59.86,3.22,1.65,4.9,2.36,3.95,1.66,8.14,2.88,12.5,3.58,2.83.46,5.74.69,8.7.69s5.87-.23,8.7-.69c4.36-.7,8.54-1.91,12.5-3.58Z" fill="#fff"/>
    </g>
    <g>
      <path d="M457.13,251.38v40.75h-8.33v-40.75h-17.09v-8.33h17.09s8.33,0,8.33,0h0s17.09,0,17.09,0v8.33h-17.09Z" fill="#fff"/>
      <path d="M507.6,255l-8.29,18.67-3.7,8.33-10.59,23.86h-9.12l10.59-23.86h-8.43l-3.69-8.33-8.29-18.67h9.11l8.29,18.67h6.71l8.29-18.67h9.12Z" fill="#fff"/>
      <path d="M543.7,284.85c-3.49,4.78-9.13,7.89-15.49,7.89-10.58,0-19.17-8.61-19.17-19.18s8.6-19.17,19.17-19.17c6.35,0,12,3.1,15.48,7.87l-7.28,4.21c-1.99-2.3-4.92-3.75-8.2-3.75-5.97,0-10.84,4.86-10.84,10.84s4.86,10.85,10.84,10.85c3.27,0,6.22-1.46,8.21-3.76l7.28,4.21Z" fill="#fff"/>
      <path d="M584.64,272.29v19.84h-8.33v-19.84c0-5.06-4.11-9.17-9.17-9.17s-9.17,4.11-9.17,9.17v19.83h-8.33v-43.76l8.33-5.33v14.38c2.67-1.65,5.81-2.62,9.17-2.62,9.65,0,17.5,7.85,17.51,17.5Z" fill="#fff"/>
      <path d="M599.6,277.73c1.64,3.92,5.51,6.68,10.01,6.68,2.77,0,5.3-1.04,7.22-2.77l7.43,4.28c-3.52,4.17-8.78,6.82-14.65,6.82-10.58,0-19.17-8.61-19.17-19.18s8.6-19.17,19.17-19.17c5.87,0,11.13,2.65,14.65,6.81,1.97,2.33,3.39,5.13,4.07,8.2.3,1.35.46,2.73.46,4.16s-.16,2.83-.46,4.17h-28.73ZM599.6,269.4h20.02c-.62-1.51-1.59-2.85-2.79-3.91-1.92-1.72-4.45-2.77-7.22-2.77-4.5,0-8.37,2.76-10.01,6.68Z" fill="#fff"/>
      <path d="M659.49,255.19v8.33c-13.87,0-15.81,8.67-16.05,10.3v18.31h-8.33v-37.12l7.83,5.01c3.76-2.8,9.12-4.82,16.55-4.82Z" fill="#fff"/>
      <path d="M689.44,258.55c2.67,2.46,4.2,5.91,4.2,9.48v24.09h-8.33v-3.95c-3.57,3.08-7.71,4.66-11.59,4.66-.91,0-1.81-.09-2.69-.26-5.82-1.18-9.13-6.01-8.22-12.02,1.61-10.67,13.79-12.93,22.49-12.54,0-1.22-.57-2.46-1.51-3.32-1.24-1.14-3.09-1.64-5.37-1.45-3.24.27-6.25,2-8.2,3.4l-4.86-6.77c2.81-2.02,7.24-4.52,12.38-4.94,5.89-.48,9.61,1.71,11.7,3.63ZM683.95,276.37h-.2c-4.54,0-11.99.73-12.7,5.42-.24,1.59.22,2.33,1.63,2.61,3.11.63,8.26-1.63,11.28-8.03Z" fill="#fff"/>
      <path d="M449.33,353.02v-49.08h8.33v49.08h-8.33Z" fill="#fff"/>
      <path d="M501.17,333.18v19.83h-8.33v-19.83c0-5.06-4.11-9.17-9.17-9.17s-9.17,4.11-9.17,9.17v19.83h-8.33v-.09h0v-37.04l6.19,3.96c3.06-2.6,7-4.17,11.32-4.17,9.65,0,17.5,7.85,17.5,17.5Z" fill="#fff"/>
      <path d="M543.14,315.89l-15.46,37.15h-9.11l-15.46-37.15h9.02l10.98,26.39,10.98-26.39h9.03Z" fill="#fff"/>
      <path d="M553.78,338.62c1.64,3.92,5.51,6.68,10.01,6.68,2.77,0,5.3-1.04,7.22-2.77l7.43,4.28c-3.52,4.17-8.78,6.82-14.65,6.82-10.58,0-19.17-8.61-19.17-19.18s8.6-19.17,19.17-19.17c5.87,0,11.13,2.65,14.65,6.81,1.97,2.33,3.39,5.13,4.07,8.2.3,1.35.46,2.73.46,4.16s-.16,2.83-.46,4.17h-28.73ZM553.78,330.29h20.02c-.62-1.51-1.59-2.85-2.79-3.91-1.92-1.72-4.45-2.77-7.22-2.77-4.5,0-8.37,2.76-10.01,6.68Z" fill="#fff"/>
      <path d="M620.17,343.51c-.94,4.64-5.58,9.87-15.56,9.87-.41,0-.84,0-1.27-.03-8.05-.34-15.06-5.65-15.35-5.88l5.06-6.62c.05.04,5.26,3.94,10.64,4.17,6.22.26,8.31-1.77,8.3-3.17,0-1.13-1.04-1.83-1.66-2.18-1.34-.74-3.52-1.1-6.44-1.1h0c-6.14-.07-11.07-1.99-13.91-5.46-1.89-2.31-2.63-5.08-2.08-7.8.98-4.83,5.97-10.31,16.83-9.85,8.05.34,15.06,5.65,15.35,5.88l-5.06,6.62c-.05-.04-5.26-3.9-10.64-4.17-7.61-.39-8.42,1.91-8.31,3.17.03.32.23.72.36.87.95,1.16,3.48,2.4,7.74,2.4h0c6.14.07,11.07,1.99,13.91,5.46,1.89,2.31,2.63,5.08,2.08,7.8Z" fill="#fff"/>
      <path d="M644.95,344.63v8.33h-1.91c-8.02,0-14.55-6.53-14.55-14.55v-14.18h-3.46v-8.33h3.46v-7.51l8.33,5.4v2.11h7.5v8.33h-7.5v14.18c0,3.43,2.79,6.22,6.22,6.22h1.91Z" fill="#fff"/>
    </g>
  </g>
</svg>